<svg width="32" height="32" viewBox="0 0 32 32" fill="none" xmlns="http://www.w3.org/2000/svg">
<g clip-path="url(#clip0_61_120)">
<path d="M29.0455 15.1692C29.0455 14.9227 29.0679 14.7434 28.9114 14.5417C28.6431 14.1831 28.3302 13.8469 28.0172 13.5332C27.5254 13.0849 26.8771 12.7263 26.2958 12.435C24.9992 11.785 23.6132 11.3368 22.2048 11.023C19.2538 10.3731 16.1688 10.261 13.1508 10.3955C11.9212 10.4627 10.6917 10.53 9.48445 10.7541C9.01499 10.8437 8.54552 10.9334 8.09841 11.0903C7.60659 11.2472 7.09241 11.4264 6.69001 11.7402C6.55588 11.8299 6.4441 11.9419 6.33232 12.054C6.2429 12.166 6.15348 12.3005 6.08641 12.435C6.01935 12.547 5.92992 12.6591 5.88521 12.7936C5.8405 12.9056 5.81815 12.9953 5.81815 13.0849C5.81815 13.197 5.86286 13.2866 5.86286 13.3763C5.86286 13.3987 6.55588 13.4659 6.62294 13.4883C6.89121 13.5332 7.15948 13.5556 7.42774 13.578C8.41139 13.69 9.41739 13.7797 10.401 13.8693C12.4577 14.0486 14.5368 14.2503 16.6159 14.4296C18.6055 14.6089 20.5728 14.7658 22.5624 14.9675C24.5744 15.1692 26.5641 15.4382 28.5984 15.3933C28.7102 15.3933 28.8443 15.3933 28.9561 15.3933C29.1126 15.3933 29.0455 15.3261 29.0455 15.1692ZM11.1111 12.2225C10.7758 12.4242 10.6667 12.4447 10.334 12.7487C9.77508 13.3314 8.79143 13.0177 8.0537 12.9504C7.94192 12.9504 7.83014 12.928 7.69601 12.9056C7.56188 12.8832 7.33832 12.928 7.36068 12.7936C7.36068 12.6143 7.40539 12.4798 7.47246 12.3005C7.56188 12.0988 7.91957 12.0092 8.12077 11.9195C8.38903 11.8074 8.6573 11.7178 8.94792 11.6506C9.99863 11.3592 11.1164 11.1799 12.2118 11.2023C12.2565 11.2023 12.3013 11.2023 12.346 11.2023C11.9212 11.4937 11.5556 11.9551 11.1111 12.2225Z" fill="#29813F"/>
<path d="M6.04286 4.52733C4.90273 4.4601 3.89673 3.36192 4.00851 2.21892C4.14264 0.986271 5.39455 0.112211 6.55704 0.000152588C6.10993 0.71733 5.3722 1.32245 5.14864 2.1741C4.90273 3.04815 5.5734 3.85498 6.04286 4.52733Z" fill="#29813F"/>
<path d="M7.2487 9.20735C7.8523 7.72818 8.88066 6.47312 9.50661 4.99394C9.84194 4.20953 9.95372 3.42511 9.19363 2.88723C8.61239 2.46141 7.91937 2.23729 7.27106 1.99076C8.07586 1.65458 9.12657 1.63217 9.93137 1.99076C10.8927 2.41658 11.4292 3.4027 11.2951 4.43364C11.1609 5.57665 10.4679 6.60759 9.68546 7.43682C8.97008 8.154 8.14292 8.78153 7.2487 9.20735Z" fill="#29813F"/>
<path d="M3.69465 14.9452C1.57087 14.8331 -0.664678 12.8385 0.184832 10.5749C0.900209 8.66986 3.22518 7.52686 5.10305 7.28033C4.05234 8.51298 2.50981 9.43186 1.74972 10.911C0.94492 12.5247 2.6663 13.9366 3.69465 14.9452Z" fill="#29813F"/>
<path d="M20.3943 10.037L16.1467 9.61114C15.8784 9.58872 15.6772 9.34219 15.722 9.07325L15.8784 7.4596C15.9008 7.19066 16.1467 6.98896 16.415 7.03378L20.6625 7.4596C20.9308 7.48202 21.132 7.72855 21.0873 7.99749L20.9308 9.61114C20.9084 9.88008 20.6625 10.0594 20.3943 10.037Z" fill="#2B823F"/>
<path d="M31.997 19.2031L31.9523 18.7324C31.8852 18.1497 31.3711 17.7239 30.7898 17.7912L28.1742 18.0601C28.1519 17.6567 27.8389 17.3205 27.4365 17.3205H6.55641C6.15401 17.3205 5.81868 17.6567 5.81868 18.0825V18.4859L3.35957 18.2394C2.77833 18.1722 2.26415 18.598 2.19708 19.1807L2.15237 19.6513C2.0853 20.234 2.51006 20.7495 3.0913 20.8167L5.81868 21.1081V21.5563V22.139V28.4367C5.81868 30.409 6.95881 32.0002 8.36721 32.0002H25.6257C27.0341 32.0002 28.1742 30.409 28.1742 28.4367V22.139V21.5563V20.6599L31.0357 20.3685C31.617 20.3237 32.0417 19.7858 31.997 19.2031ZM12.3912 30.2969H9.37321C9.35085 30.2969 9.3285 30.2969 9.30614 30.2969H9.26143C8.34485 30.2969 7.60712 29.378 7.60712 28.235V22.0494C7.60712 21.9822 7.60712 21.9373 7.60712 21.8701V20.5478C7.60712 20.234 7.87539 19.9651 8.18836 19.9651H9.26143H9.30614H9.37321H11.5193H12.3912V30.2969Z" fill="#2B823F"/>
</g>
<defs>
<clipPath id="clip0_61_120">
<rect width="32" height="32" fill="white"/>
</clipPath>
</defs>
</svg>
