<svg width="217" height="72" viewBox="0 0 217 72" fill="none" xmlns="http://www.w3.org/2000/svg">
<path d="M197.458 57.5541C195.372 57.5541 193.52 57.2061 191.902 56.51C190.299 55.7998 189.029 54.7345 188.092 53.314C187.17 51.8793 186.708 50.0825 186.708 47.9234C186.708 46.1052 187.028 44.5711 187.666 43.3211C188.305 42.0711 189.185 41.0555 190.306 40.2742C191.427 39.493 192.718 38.9035 194.18 38.5058C195.642 38.0938 197.203 37.8168 198.863 37.6748C200.722 37.5043 202.22 37.3268 203.355 37.1421C204.49 36.9433 205.313 36.6663 205.824 36.3112C206.349 35.9418 206.612 35.4234 206.612 34.7558V34.6492C206.612 33.5555 206.236 32.7103 205.484 32.1137C204.731 31.5171 203.717 31.2188 202.44 31.2188C201.063 31.2188 199.956 31.5171 199.119 32.1137C198.281 32.7103 197.749 33.5342 197.522 34.5853L187.922 34.2444C188.206 32.2558 188.936 30.4802 190.114 28.9177C191.306 27.341 192.938 26.1052 195.01 25.2103C197.096 24.3012 199.601 23.8467 202.525 23.8467C204.611 23.8467 206.534 24.0953 208.294 24.5924C210.053 25.0754 211.586 25.7856 212.892 26.7231C214.197 27.6464 215.205 28.7828 215.914 30.1322C216.638 31.4816 217 33.0228 217 34.7558V57.0001H207.208V52.4404H206.952C206.371 53.5484 205.626 54.4859 204.717 55.2529C203.823 56.02 202.766 56.5953 201.546 56.9788C200.339 57.3623 198.977 57.5541 197.458 57.5541ZM200.673 50.7359C201.794 50.7359 202.801 50.5086 203.696 50.0541C204.604 49.5995 205.328 48.9745 205.867 48.1791C206.406 47.3694 206.676 46.4319 206.676 45.3666V42.2558C206.378 42.412 206.016 42.5541 205.59 42.6819C205.179 42.8097 204.724 42.9305 204.228 43.0441C203.731 43.1578 203.22 43.2572 202.695 43.3424C202.17 43.4276 201.666 43.5058 201.184 43.5768C200.204 43.733 199.367 43.9745 198.672 44.3012C197.991 44.6279 197.465 45.0541 197.096 45.5796C196.742 46.091 196.564 46.7018 196.564 47.412C196.564 48.4916 196.947 49.3154 197.714 49.8836C198.494 50.4518 199.481 50.7359 200.673 50.7359Z" fill="#2B823F"/>
<path d="M164.732 57.5541C162.646 57.5541 160.794 57.2061 159.176 56.51C157.572 55.7998 156.302 54.7345 155.365 53.314C154.443 51.8793 153.982 50.0825 153.982 47.9234C153.982 46.1052 154.301 44.5711 154.94 43.3211C155.578 42.0711 156.458 41.0555 157.579 40.2742C158.7 39.493 159.992 38.9035 161.453 38.5058C162.915 38.0938 164.476 37.8168 166.137 37.6748C167.996 37.5043 169.493 37.3268 170.628 37.1421C171.764 36.9433 172.587 36.6663 173.098 36.3112C173.623 35.9418 173.885 35.4234 173.885 34.7558V34.6492C173.885 33.5555 173.509 32.7103 172.757 32.1137C172.005 31.5171 170.99 31.2188 169.713 31.2188C168.336 31.2188 167.229 31.5171 166.392 32.1137C165.555 32.7103 165.023 33.5342 164.796 34.5853L155.195 34.2444C155.479 32.2558 156.21 30.4802 157.388 28.9177C158.58 27.341 160.212 26.1052 162.284 25.2103C164.37 24.3012 166.875 23.8467 169.798 23.8467C171.884 23.8467 173.807 24.0953 175.567 24.5924C177.327 25.0754 178.859 25.7856 180.165 26.7231C181.471 27.6464 182.478 28.7828 183.188 30.1322C183.911 31.4816 184.273 33.0228 184.273 34.7558V57.0001H174.481V52.4404H174.226C173.644 53.5484 172.899 54.4859 171.991 55.2529C171.097 56.02 170.039 56.5953 168.819 56.9788C167.613 57.3623 166.25 57.5541 164.732 57.5541ZM167.946 50.7359C169.067 50.7359 170.075 50.5086 170.969 50.0541C171.877 49.5995 172.601 48.9745 173.14 48.1791C173.679 47.3694 173.949 46.4319 173.949 45.3666V42.2558C173.651 42.412 173.289 42.5541 172.863 42.6819C172.452 42.8097 171.998 42.9305 171.501 43.0441C171.004 43.1578 170.493 43.2572 169.968 43.3424C169.443 43.4276 168.939 43.5058 168.457 43.5768C167.478 43.733 166.64 43.9745 165.945 44.3012C165.264 44.6279 164.739 45.0541 164.37 45.5796C164.015 46.091 163.838 46.7018 163.838 47.412C163.838 48.4916 164.221 49.3154 164.987 49.8836C165.768 50.4518 166.754 50.7359 167.946 50.7359Z" fill="#2B823F"/>
<path d="M131.511 57.4689C129.098 57.4689 126.905 56.8439 124.933 55.5939C122.96 54.3439 121.385 52.4689 120.207 49.9689C119.029 47.4689 118.44 44.3652 118.44 40.6578C118.44 36.8084 119.05 33.6408 120.271 31.155C121.491 28.6692 123.088 26.8297 125.061 25.6365C127.047 24.4433 129.183 23.8467 131.468 23.8467C133.185 23.8467 134.654 24.145 135.874 24.7416C137.095 25.324 138.103 26.0768 138.897 27.0001C139.692 27.9234 140.295 28.8822 140.707 29.8766H140.92V13.3638H151.329V57.0001H141.026V51.6947H140.707C140.267 52.7033 139.642 53.6479 138.833 54.5285C138.024 55.4092 137.01 56.1195 135.789 56.6592C134.583 57.199 133.157 57.4689 131.511 57.4689ZM135.129 49.351C136.392 49.351 137.471 48.9959 138.365 48.2856C139.259 47.5612 139.947 46.5456 140.43 45.2388C140.912 43.932 141.154 42.3979 141.154 40.6365C141.154 38.8467 140.912 37.3055 140.43 36.0129C139.962 34.7203 139.273 33.726 138.365 33.03C137.471 32.3339 136.392 31.9859 135.129 31.9859C133.838 31.9859 132.745 32.341 131.851 33.0513C130.957 33.7615 130.276 34.7629 129.808 36.0555C129.353 37.3481 129.126 38.8751 129.126 40.6365C129.126 42.3979 129.361 43.932 129.829 45.2388C130.297 46.5456 130.971 47.5612 131.851 48.2856C132.745 48.9959 133.838 49.351 135.129 49.351Z" fill="#2B823F"/>
<path d="M84.563 57.618C81.1429 57.618 78.191 56.9433 75.7075 55.5938C73.2382 54.2302 71.3366 52.2913 70.0026 49.7771C68.6828 47.2487 68.0229 44.2444 68.0229 40.7643C68.0229 37.3836 68.6899 34.4291 70.0239 31.9007C71.3578 29.358 73.2382 27.3836 75.665 25.9774C78.0917 24.5569 80.9513 23.8467 84.2437 23.8467C86.5711 23.8467 88.6998 24.2089 90.6298 24.9333C92.5599 25.6578 94.2274 26.7302 95.6323 28.1507C97.0373 29.5711 98.13 31.3254 98.9106 33.4134C99.6911 35.4873 100.081 37.8666 100.081 40.5512V43.1507H71.663V37.0995H90.3957C90.3815 35.9916 90.119 35.0043 89.6081 34.1379C89.0972 33.2714 88.3947 32.5967 87.5006 32.1137C86.6208 31.6166 85.6061 31.368 84.4566 31.368C83.2929 31.368 82.2498 31.6308 81.3273 32.1563C80.4049 32.6677 79.674 33.3708 79.1348 34.2657C78.5955 35.1464 78.3117 36.1478 78.2833 37.27V43.4276C78.2833 44.7629 78.5458 45.9347 79.0709 46.9433C79.596 47.9376 80.341 48.7117 81.3061 49.2657C82.2711 49.8197 83.4206 50.0967 84.7546 50.0967C85.677 50.0967 86.5143 49.9688 87.2665 49.7132C88.0186 49.4575 88.6643 49.0811 89.2036 48.5839C89.7429 48.0867 90.1473 47.4759 90.417 46.7515L99.9749 47.0285C99.5776 49.1734 98.7048 51.0413 97.3566 52.6322C96.0226 54.2089 94.27 55.4376 92.0987 56.3183C89.9274 57.1847 87.4155 57.618 84.563 57.618Z" fill="#2B823F"/>
<path d="M50.8421 57.618C47.422 57.618 44.4702 56.9433 41.9867 55.5938C39.5174 54.2302 37.6157 52.2913 36.2817 49.7771C34.9619 47.2487 34.302 44.2444 34.302 40.7643C34.302 37.3836 34.969 34.4291 36.303 31.9007C37.637 29.358 39.5174 27.3836 41.9441 25.9774C44.3708 24.5569 47.2304 23.8467 50.5228 23.8467C52.8502 23.8467 54.979 24.2089 56.909 24.9333C58.839 25.6578 60.5065 26.7302 61.9115 28.1507C63.3164 29.5711 64.4092 31.3254 65.1897 33.4134C65.9702 35.4873 66.3605 37.8666 66.3605 40.5512V43.1507H37.9421V37.0995H56.6748C56.6606 35.9916 56.3981 35.0043 55.8872 34.1379C55.3763 33.2714 54.6738 32.5967 53.7798 32.1137C52.8999 31.6166 51.8852 31.368 50.7357 31.368C49.572 31.368 48.5289 31.6308 47.6065 32.1563C46.684 32.6677 45.9532 33.3708 45.4139 34.2657C44.8746 35.1464 44.5908 36.1478 44.5624 37.27V43.4276C44.5624 44.7629 44.825 45.9347 45.3501 46.9433C45.8751 47.9376 46.6202 48.7117 47.5852 49.2657C48.5502 49.8197 49.6997 50.0967 51.0337 50.0967C51.9562 50.0967 52.7935 49.9688 53.5456 49.7132C54.2978 49.4575 54.9435 49.0811 55.4828 48.5839C56.022 48.0867 56.4265 47.4759 56.6961 46.7515L66.2541 47.0285C65.8567 49.1734 64.9839 51.0413 63.6357 52.6322C62.3018 54.2089 60.5491 55.4376 58.3778 56.3183C56.2065 57.1847 53.6946 57.618 50.8421 57.618Z" fill="#2B823F"/>
<path d="M9.66483 69.2729C8.41599 69.2729 7.23809 69.1735 6.13116 68.9747C5.02423 68.79 4.0734 68.5414 3.27868 68.2289L5.57769 60.665C6.59948 61.0059 7.52192 61.2048 8.34503 61.2616C9.18232 61.3184 9.89899 61.1835 10.495 60.8568C11.1053 60.5443 11.5736 59.9832 11.9 59.1735L12.3044 58.1934L0.681641 24.2729H11.5807L17.605 47.6252H17.9456L24.055 24.2729H35.0179L22.6926 60.1323C22.0966 61.9221 21.2522 63.4988 20.1594 64.8624C19.0809 66.2403 17.683 67.3198 15.9658 68.1011C14.2629 68.8823 12.1625 69.2729 9.66483 69.2729Z" fill="#2B823F"/>
<path d="M115.893 36.4999C117.701 39.8152 117.242 46.3437 113.894 47.998C110.259 49.744 103.903 47.998 101.3 44.0052C104.902 43.998 107.159 43.3389 109.899 42.4999C112.895 40.998 114.859 38.975 115.893 36.4999Z" fill="#29813F"/>
</svg>
