<svg width="72" height="72" viewBox="0 0 72 72" fill="none" xmlns="http://www.w3.org/2000/svg">
<g clip-path="url(#clip0_61_120)">
<path d="M65.3525 34.1305C65.3525 33.5758 65.4028 33.1724 65.0507 32.7186C64.4471 31.9118 63.7429 31.1554 63.0387 30.4494C61.9321 29.4409 60.4734 28.6341 59.1656 27.9785C56.2482 26.5161 53.1296 25.5076 49.9607 24.8016C43.3211 23.3393 36.3797 23.0871 29.5892 23.3897C26.8227 23.541 24.0562 23.6923 21.34 24.1965C20.2837 24.3982 19.2274 24.5999 18.2214 24.9529C17.1148 25.3059 15.9579 25.7093 15.0525 26.4153C14.7507 26.617 14.4992 26.8691 14.2477 27.1213C14.0465 27.3734 13.8453 27.6759 13.6944 27.9785C13.5435 28.2306 13.3423 28.4828 13.2417 28.7853C13.1411 29.0375 13.0908 29.2392 13.0908 29.4409C13.0908 29.693 13.1914 29.8947 13.1914 30.0964C13.1914 30.1468 14.7507 30.2981 14.9016 30.3486C15.5052 30.4494 16.1088 30.4998 16.7124 30.5503C18.9256 30.8024 21.1891 31.0041 23.4023 31.2058C28.0299 31.6092 32.7078 32.0631 37.3857 32.4665C41.8624 32.8699 46.2888 33.2229 50.7655 33.6767C55.2925 34.1305 59.7692 34.7357 64.3465 34.6348C64.598 34.6348 64.8998 34.6348 65.1513 34.6348C65.5034 34.6348 65.3525 34.4835 65.3525 34.1305ZM25 27.5004C24.2455 27.9542 24 28.0004 23.2514 28.6845C21.9939 29.9956 19.7807 29.2896 18.1208 29.1383C17.8693 29.1383 17.6178 29.0879 17.316 29.0375C17.0142 28.987 16.5112 29.0879 16.5615 28.7853C16.5615 28.3819 16.6621 28.0794 16.813 27.6759C17.0142 27.2221 17.819 27.0204 18.2717 26.8187C18.8753 26.5666 19.4789 26.3649 20.1328 26.2136C22.4969 25.558 25.0119 25.1546 27.4766 25.205C27.5772 25.205 27.6778 25.205 27.7784 25.205C26.8227 25.8606 26 26.8989 25 27.5004Z" fill="#29813F"/>
<path d="M13.5964 10.1863C11.0311 10.035 8.76765 7.56413 9.01915 4.99238C9.32095 2.21892 12.1377 0.252285 14.7533 0.000152588C13.7473 1.6138 12.0874 2.97532 11.5844 4.89152C11.0311 6.85816 12.5401 8.67351 13.5964 10.1863Z" fill="#29813F"/>
<path d="M16.3096 20.7164C17.6677 17.3882 19.9815 14.5643 21.3899 11.2362C22.1444 9.47125 22.3959 7.70633 20.6857 6.49609C19.3779 5.53799 17.8186 5.03372 16.3599 4.47903C18.1707 3.72263 20.5348 3.67221 22.3456 4.47903C24.5085 5.43713 25.7157 7.6559 25.4139 9.97552C25.1121 12.5473 23.5528 14.8669 21.7923 16.7327C20.1827 18.3463 18.3216 19.7583 16.3096 20.7164Z" fill="#29813F"/>
<path d="M8.31296 33.6264C3.53447 33.3743 -1.49553 28.8863 0.415872 23.7932C2.02547 19.507 7.25666 16.9352 11.4819 16.3806C9.11776 19.154 5.64707 21.2215 3.93687 24.5496C2.12607 28.1804 5.99917 31.3572 8.31296 33.6264Z" fill="#29813F"/>
<path d="M45.8871 22.583L36.3301 21.6249C35.7265 21.5744 35.2738 21.0197 35.3744 20.4146L35.7265 16.7839C35.7768 16.1788 36.3301 15.725 36.9337 15.8258L46.4907 16.7839C47.0943 16.8343 47.547 17.389 47.4464 17.9942L47.0943 21.6249C47.044 22.23 46.4907 22.6334 45.8871 22.583Z" fill="#2B823F"/>
<path d="M71.9933 43.2068L71.8927 42.1478C71.7418 40.8367 70.5849 39.8786 69.2771 40.0299L63.392 40.635C63.3417 39.7273 62.6375 38.9709 61.7321 38.9709H14.7519C13.8465 38.9709 13.092 39.7273 13.092 40.6854V41.5931L7.55903 41.0384C6.25123 40.8871 5.09433 41.8452 4.94343 43.1563L4.84283 44.2153C4.69193 45.5264 5.64763 46.6862 6.95543 46.8375L13.092 47.493V48.5015V49.8126V63.9825C13.092 68.42 15.6573 72.0003 18.8262 72.0003H57.6578C60.8267 72.0003 63.392 68.42 63.392 63.9825V49.8126V48.5015V46.4845L69.8304 45.8289C71.1382 45.7281 72.0939 44.5179 71.9933 43.2068ZM27.8802 68.1679H21.0897C21.0394 68.1679 20.9891 68.1679 20.9388 68.1679H20.8382C18.7759 68.1679 17.116 66.1004 17.116 63.5286V49.6109C17.116 49.4597 17.116 49.3588 17.116 49.2075V46.2324C17.116 45.5264 17.7196 44.9213 18.4238 44.9213H20.8382H20.9388H21.0897H25.9185H27.8802V68.1679Z" fill="#2B823F"/>
</g>
<defs>
<clipPath id="clip0_61_120">
<rect width="72" height="72" fill="white"/>
</clipPath>
</defs>
</svg>
