<svg width="16" height="16" viewBox="0 0 16 16" fill="none" xmlns="http://www.w3.org/2000/svg">
<path d="M14.5228 7.58468C14.5228 7.46141 14.5339 7.37177 14.4557 7.27092C14.3216 7.09162 14.1651 6.92353 14.0086 6.76665C13.7627 6.54253 13.4385 6.36324 13.1479 6.21756C12.4996 5.89259 11.8066 5.66847 11.1024 5.51159C9.62691 5.18662 8.08438 5.13059 6.57538 5.19783C5.9606 5.23144 5.34583 5.26506 4.74223 5.37712C4.50749 5.42194 4.27276 5.46677 4.04921 5.54521C3.80329 5.62365 3.54621 5.7133 3.34501 5.87018C3.27794 5.915 3.22205 5.97103 3.16616 6.02706C3.12145 6.08309 3.07674 6.15033 3.04321 6.21756C3.00967 6.27359 2.96496 6.32962 2.94261 6.39686C2.92025 6.45288 2.90907 6.49771 2.90907 6.54253C2.90907 6.59856 2.93143 6.64339 2.93143 6.68821C2.93143 6.69941 3.27794 6.73303 3.31147 6.74424C3.44561 6.76665 3.57974 6.77786 3.71387 6.78906C4.20569 6.84509 4.70869 6.88991 5.20051 6.93474C6.22887 7.02439 7.2684 7.12524 8.30793 7.21489C9.30276 7.30453 10.2864 7.38297 11.2812 7.48383C12.2872 7.58468 13.282 7.71915 14.2992 7.69674C14.3551 7.69674 14.4222 7.69674 14.4781 7.69674C14.5563 7.69674 14.5228 7.66312 14.5228 7.58468ZM5.55556 6.11131C5.38789 6.21217 5.33334 6.22243 5.16698 6.37444C4.88754 6.6658 4.39572 6.50891 4.02685 6.4753C3.97096 6.4753 3.91507 6.46409 3.84801 6.45288C3.78094 6.44168 3.66916 6.46409 3.68034 6.39686C3.68034 6.30721 3.70269 6.23997 3.73623 6.15033C3.78094 6.04947 3.95978 6.00465 4.06038 5.95983C4.19452 5.9038 4.32865 5.85897 4.47396 5.82536C4.99932 5.67968 5.5582 5.59003 6.10591 5.60124C6.12827 5.60124 6.15063 5.60124 6.17298 5.60124C5.9606 5.74691 5.77778 5.97765 5.55556 6.11131Z" fill="#29813F"/>
<path d="M3.02143 2.26374C2.45137 2.23012 1.94837 1.68104 2.00426 1.10954C2.07132 0.493212 2.69728 0.056182 3.27852 0.000152588C3.05497 0.358741 2.6861 0.6613 2.57432 1.08712C2.45137 1.52415 2.7867 1.92757 3.02143 2.26374Z" fill="#29813F"/>
<path d="M3.62434 4.60376C3.92614 3.86417 4.44032 3.23664 4.7533 2.49705C4.92096 2.10484 4.97685 1.71264 4.59681 1.4437C4.30619 1.23078 3.95968 1.11873 3.63552 0.99546C4.03792 0.827372 4.56328 0.816166 4.96568 0.99546C5.44632 1.20837 5.71459 1.70143 5.64752 2.2169C5.58045 2.7884 5.23394 3.30387 4.84272 3.71849C4.48503 4.07708 4.07145 4.39084 3.62434 4.60376Z" fill="#29813F"/>
<path d="M1.84733 7.47266C0.785437 7.41663 -0.332339 6.4193 0.092416 5.28751C0.450104 4.33501 1.61259 3.76351 2.55152 3.64024C2.02617 4.25657 1.2549 4.71601 0.87486 5.4556C0.47246 6.26242 1.33315 6.96839 1.84733 7.47266Z" fill="#29813F"/>
<path d="M10.1971 5.01856L8.07335 4.80564C7.93921 4.79444 7.83861 4.67117 7.86097 4.5367L7.93921 3.72988C7.95039 3.59541 8.07335 3.49456 8.20748 3.51697L10.3313 3.72988C10.4654 3.74108 10.566 3.86435 10.5436 3.99882L10.4654 4.80564C10.4542 4.94012 10.3313 5.02976 10.1971 5.01856Z" fill="#2B823F"/>
<path d="M15.9985 9.60162L15.9761 9.3663C15.9426 9.07495 15.6855 8.86203 15.3949 8.89565L14.0871 9.03012C14.0759 8.82842 13.9194 8.66033 13.7182 8.66033H3.2782C3.077 8.66033 2.90933 8.82842 2.90933 9.04133V9.24303L1.67978 9.11977C1.38915 9.08615 1.13207 9.29906 1.09853 9.59042L1.07618 9.82574C1.04264 10.1171 1.25502 10.3748 1.54564 10.4084L2.90933 10.5541V10.7782V11.0696V14.2184C2.90933 15.2046 3.4794 16.0002 4.1836 16.0002H12.8128C13.517 16.0002 14.0871 15.2046 14.0871 14.2184V11.0696V10.7782V10.33L15.5179 10.1843C15.8085 10.1619 16.0209 9.89298 15.9985 9.60162ZM6.1956 15.1485H4.6866C4.67542 15.1485 4.66424 15.1485 4.65306 15.1485H4.63071C4.17242 15.1485 3.80355 14.6891 3.80355 14.1176V11.0248C3.80355 10.9912 3.80355 10.9687 3.80355 10.9351V10.274C3.80355 10.1171 3.93769 9.98262 4.09417 9.98262H4.63071H4.65306H4.6866H5.75966H6.1956V15.1485Z" fill="#2B823F"/>
</svg>
